<svg xmlns="http://www.w3.org/2000/svg" width="343" height="254" viewBox="0 0 343 254" fill="none"><metadata><rdf:RDF xmlns:rdf="http://www.w3.org/1999/02/22-rdf-syntax-ns#" xmlns:dc="http://purl.org/dc/elements/1.1/"><rdf:Description><dc:creator>RealFaviconGenerator</dc:creator><dc:source>https://realfavicongenerator.net</dc:source></rdf:Description></rdf:RDF></metadata><path d="M171.5 206L0 127L171.5 48L343 127L171.5 206Z" fill="white"></path><path d="M219.597 164.169C210.123 176.295 196.385 184.355 181.178 186.709L171.922 126.922L219.597 164.169Z" fill="url(#paint0_linear_234_65)"></path><path d="M219.597 164.169C228.264 153.075 232.792 139.306 232.399 125.232C232.005 111.159 226.717 97.6639 217.443 87.071C208.17 76.478 195.492 69.4508 181.595 67.1999C167.697 64.949 153.45 67.6154 141.307 74.7396C129.164 81.8638 119.886 92.9999 115.071 106.229C110.256 119.459 110.205 133.954 114.928 147.216C119.65 160.479 128.851 171.68 140.944 178.889C153.037 186.098 167.265 188.863 181.178 186.709L171.922 126.922L219.597 164.169Z" fill="url(#paint1_linear_234_65)"></path><circle cx="171.922" cy="126.921" r="34.5" fill="#000104"></circle><circle cx="195.922" cy="102.921" r="10.5" fill="white"></circle><path d="M84.5 17.5L0.5 126.5H1L171.5 48V0L84.5 17.5Z" fill="#FF0000"></path><path d="M84.5 17.5L0.5 126.5H1L171.5 48V0L84.5 17.5Z" fill="#FF0000"></path><path d="M258.5 17.5L342.5 126.5H342L171.5 48V0L258.5 17.5Z" fill="#FF0000"></path><path d="M258.5 17.5L342.5 126.5H342L171.5 48V0L258.5 17.5Z" fill="#FF0000"></path><path d="M258.5 236.5L342.5 127.5H342L171.5 206V254L258.5 236.5Z" fill="#FF0000"></path><path d="M258.5 236.5L342.5 127.5H342L171.5 206V254L258.5 236.5Z" fill="#FF0000"></path><path d="M84.5 236.5L0.5 127.5H1L171.5 206V254L84.5 236.5Z" fill="#FF0000"></path><path d="M84.5 236.5L0.5 127.5H1L171.5 206V254L84.5 236.5Z" fill="#FF0000"></path><path d="M171.5 0L342 126.5L171.5 48L84.5 17.5L171.5 0Z" fill="url(#paint2_linear_234_65)"></path><path d="M171.5 254L1 127.5L171.5 206L258.5 236.5L171.5 254Z" fill="url(#paint3_linear_234_65)"></path><path d="M84.5 17.5L0 127L1 126.5L171.5 0L84.5 17.5Z" fill="url(#paint4_linear_234_65)"></path><path d="M258.5 236.5L171.5 254L342 127.5L343 127L258.5 236.5Z" fill="url(#paint5_linear_234_65)"></path><path d="M258.5 17.5L343 127L342 126.5L171.5 0L258.5 17.5Z" fill="url(#paint6_linear_234_65)"></path><path d="M84.5 236.5L0 127L1 127.5L171.5 254L84.5 236.5Z" fill="url(#paint7_linear_234_65)"></path><path d="M171.5 0L258.5 17.5L171.5 48L1 126.5L171.5 0Z" fill="url(#paint8_linear_234_65)"></path><path d="M171.5 206L342 127.5L171.5 254L84.5 236.5L171.5 206Z" fill="url(#paint9_linear_234_65)"></path><path d="M195.5 59L258.5 17.5L171.5 48L195.5 59Z" fill="black" fill-opacity="0.15"></path><path d="M147.5 195L84.5 236.5L171.5 206L147.5 195Z" fill="black" fill-opacity="0.15"></path><defs>
<linearGradient id="paint0_linear_234_65" x1="124.248" y1="89.6742" x2="219.597" y2="164.169" gradientUnits="userSpaceOnUse">
<stop stop-color="#00C4FF"></stop>
<stop offset="1" stop-color="#24525B"></stop>
</linearGradient>
<linearGradient id="paint1_linear_234_65" x1="124.248" y1="89.6742" x2="219.597" y2="164.169" gradientUnits="userSpaceOnUse">
<stop stop-color="#234E5B"></stop>
<stop offset="1" stop-color="#24525B"></stop>
</linearGradient>
<linearGradient id="paint2_linear_234_65" x1="213.25" y1="0" x2="213.25" y2="126.5" gradientUnits="userSpaceOnUse">
<stop stop-color="#232F5E"></stop>
<stop offset="1" stop-color="#273256"></stop>
</linearGradient>
<linearGradient id="paint3_linear_234_65" x1="129.75" y1="127.5" x2="129.75" y2="254" gradientUnits="userSpaceOnUse">
<stop stop-color="#273256"></stop>
<stop offset="1" stop-color="#232F5E"></stop>
</linearGradient>
<linearGradient id="paint4_linear_234_65" x1="171.5" y1="0" x2="171.5" y2="254" gradientUnits="userSpaceOnUse">
<stop stop-color="#6FC1CB"></stop>
<stop offset="1" stop-color="#6CB9BF"></stop>
</linearGradient>
<linearGradient id="paint5_linear_234_65" x1="171.5" y1="0" x2="171.5" y2="254" gradientUnits="userSpaceOnUse">
<stop stop-color="#6FC1CB"></stop>
<stop offset="1" stop-color="#6CB9BF"></stop>
</linearGradient>
<linearGradient id="paint6_linear_234_65" x1="257" y1="0" x2="257" y2="126.5" gradientUnits="userSpaceOnUse">
<stop stop-color="#293667"></stop>
<stop offset="1" stop-color="#273256"></stop>
</linearGradient>
<linearGradient id="paint7_linear_234_65" x1="86" y1="127.5" x2="86" y2="254" gradientUnits="userSpaceOnUse">
<stop stop-color="#273256"></stop>
<stop offset="1" stop-color="#293667"></stop>
</linearGradient>
<linearGradient id="paint8_linear_234_65" x1="129.75" y1="0" x2="129.75" y2="126.5" gradientUnits="userSpaceOnUse">
<stop stop-color="#4FA0A4"></stop>
<stop offset="1" stop-color="#6FC1CB"></stop>
</linearGradient>
<linearGradient id="paint9_linear_234_65" x1="213.25" y1="127.5" x2="213.25" y2="254" gradientUnits="userSpaceOnUse">
<stop stop-color="#6FC1CB"></stop>
<stop offset="1" stop-color="#4FA0A4"></stop>
</linearGradient>
</defs></svg>