<svg width="1016" height="254" viewBox="0 0 1016 254" fill="none" xmlns="http://www.w3.org/2000/svg">
<path d="M84.5 17.5L0.5 126.5H1L171.5 48V0L84.5 17.5Z" fill="#FF0000"/>
<path d="M84.5 17.5L0.5 126.5H1L171.5 48V0L84.5 17.5Z" fill="#FF0000"/>
<path d="M258.5 17.5L342.5 126.5H342L171.5 48V0L258.5 17.5Z" fill="#FF0000"/>
<path d="M258.5 17.5L342.5 126.5H342L171.5 48V0L258.5 17.5Z" fill="#FF0000"/>
<path d="M258.5 236.5L342.5 127.5H342L171.5 206V254L258.5 236.5Z" fill="#FF0000"/>
<path d="M258.5 236.5L342.5 127.5H342L171.5 206V254L258.5 236.5Z" fill="#FF0000"/>
<path d="M84.5 236.5L0.5 127.5H1L171.5 206V254L84.5 236.5Z" fill="#FF0000"/>
<path d="M84.5 236.5L0.5 127.5H1L171.5 206V254L84.5 236.5Z" fill="#FF0000"/>
<path d="M171.5 0L342 126.5L171.5 48L84.5 17.5L171.5 0Z" fill="url(#paint0_linear_8_31)"/>
<path d="M171.5 254L1 127.5L171.5 206L258.5 236.5L171.5 254Z" fill="url(#paint1_linear_8_31)"/>
<path d="M84.5 17.5L0 127L1 126.5L171.5 0L84.5 17.5Z" fill="url(#paint2_linear_8_31)"/>
<path d="M258.5 236.5L171.5 254L342 127.5L343 127L258.5 236.5Z" fill="url(#paint3_linear_8_31)"/>
<path d="M258.5 17.5L343 127L342 126.5L171.5 0L258.5 17.5Z" fill="url(#paint4_linear_8_31)"/>
<path d="M84.5 236.5L0 127L1 127.5L171.5 254L84.5 236.5Z" fill="url(#paint5_linear_8_31)"/>
<path d="M171.5 0L258.5 17.5L171.5 48L1 126.5L171.5 0Z" fill="url(#paint6_linear_8_31)"/>
<path d="M171.5 206L342 127.5L171.5 254L84.5 236.5L171.5 206Z" fill="url(#paint7_linear_8_31)"/>
<path d="M195.5 59L258.5 17.5L171.5 48L195.5 59Z" fill="black" fill-opacity="0.15"/>
<path d="M147.5 195L84.5 236.5L171.5 206L147.5 195Z" fill="black" fill-opacity="0.15"/>
<path d="M171.5 206L0 127L171.5 48L343 127L171.5 206Z" fill="white"/>
<path d="M218.675 163.748C209.201 175.874 195.462 183.934 180.256 186.288L171 126.5L218.675 163.748Z" fill="url(#paint8_linear_8_31)"/>
<path d="M218.675 163.748C227.342 152.654 231.87 138.884 231.476 124.811C231.083 110.738 225.795 97.2425 216.521 86.6496C207.248 76.0566 194.57 69.0294 180.673 66.7785C166.775 64.5276 152.528 67.194 140.385 74.3182C128.242 81.4425 118.964 92.5785 114.149 105.808C109.333 119.038 109.283 133.532 114.006 146.795C118.728 160.058 127.928 171.259 140.021 178.467C152.114 185.676 166.343 188.442 180.256 186.288L171 126.5L218.675 163.748Z" fill="url(#paint9_linear_8_31)"/>
<circle cx="171" cy="126.5" r="34.5" fill="url(#paint10_linear_8_31)"/>
<circle cx="195" cy="102.5" r="10.5" fill="white"/>
<path d="M735.996 37.1201C741.372 37.1201 746.705 37.8026 751.996 39.168C757.287 40.5333 761.895 42.4957 765.82 45.0557L760.572 57.9844C756.562 55.5951 752.423 53.8457 748.156 52.7363C743.89 51.5417 739.793 50.9444 735.868 50.9443C731.26 50.9443 727.505 51.4991 724.604 52.6084C721.788 53.7177 719.697 55.1681 718.332 56.96C717.052 58.7518 716.412 60.7997 716.412 63.1035C716.412 65.834 717.35 68.0531 719.228 69.7598C721.19 71.3811 723.708 72.6609 726.78 73.5996C729.938 74.5383 733.436 75.4774 737.276 76.416C741.116 77.2693 744.913 78.2511 748.668 79.3604C752.508 80.4697 755.964 81.9199 759.036 83.7119C762.193 85.5039 764.711 87.9359 766.588 91.0078C768.551 94.0798 769.532 97.9629 769.532 102.656C769.532 107.435 768.21 111.872 765.564 115.968C763.004 119.978 759.036 123.222 753.66 125.696C748.284 128.086 741.5 129.28 733.308 129.28C726.31 129.28 719.612 128.299 713.212 126.336C706.812 124.288 701.735 121.685 697.98 118.528L703.74 105.6C707.324 108.416 711.761 110.762 717.052 112.64C722.342 114.517 727.761 115.456 733.308 115.456C738.001 115.456 741.799 114.944 744.7 113.92C747.601 112.896 749.734 111.531 751.1 109.824C752.465 108.032 753.148 106.026 753.148 103.808C753.148 101.077 752.167 98.9015 750.204 97.2803C748.241 95.5737 745.682 94.2502 742.524 93.3115C739.452 92.2875 735.996 91.3494 732.156 90.4961C728.402 89.6428 724.604 88.6611 720.764 87.5518C717.009 86.3572 713.554 84.8641 710.396 83.0723C707.325 81.195 704.806 78.7203 702.844 75.6484C700.881 72.5765 699.9 68.6507 699.9 63.8721C699.9 59.0081 701.18 54.5702 703.74 50.5596C706.386 46.4639 710.353 43.2213 715.644 40.832C721.02 38.3574 727.804 37.1201 735.996 37.1201ZM868.763 37.1201C875.76 37.1201 882.16 38.2722 887.963 40.5762C893.851 42.8802 898.971 46.1224 903.323 50.3037C907.675 54.3997 911.045 59.2645 913.435 64.8965C915.824 70.4431 917.019 76.5443 917.019 83.2002C917.019 89.8561 915.824 95.9999 913.435 101.632C911.045 107.264 907.675 112.128 903.323 116.224C898.971 120.32 893.851 123.52 887.963 125.824C882.16 128.128 875.803 129.28 868.891 129.28C861.894 129.28 855.451 128.128 849.563 125.824C843.675 123.52 838.555 120.32 834.203 116.224C829.851 112.042 826.48 107.178 824.091 101.632C821.702 95.9999 820.507 89.856 820.507 83.2002C820.507 76.5444 821.702 70.443 824.091 64.8965C826.48 59.2645 829.851 54.3997 834.203 50.3037C838.555 46.1225 843.676 42.8801 849.563 40.5762C855.451 38.2723 861.851 37.1202 868.763 37.1201ZM425.396 38.4004C433.332 38.4004 440.116 39.6802 445.748 42.2402C451.465 44.8002 455.86 48.4695 458.932 53.248C462.004 58.0267 463.54 63.7018 463.54 70.2725C463.54 76.8429 462.004 82.5173 458.932 87.2959C455.86 91.9892 451.465 95.6158 445.748 98.1758C445.348 98.3514 444.943 98.5204 444.531 98.6836L465.076 128H447.156L428.9 101.804C427.758 101.86 426.59 101.888 425.396 101.888H405.172V128H388.532V38.4004H425.396ZM566.637 128H549.229L540.323 107.264H504L508.48 94.208H534.716L517.875 54.9951L486.637 128H469.485L509.805 38.4004H526.189L566.637 128ZM608.445 107.47L638.562 38.4004H655.202L616.162 128H599.778L560.61 38.4004H578.658L608.445 107.47ZM681.297 128H664.657V38.4004H681.297V128ZM802.672 128H786.032V38.4004H802.672V128ZM997.761 99.0615V38.4004H1014.27V128H1000.58L951.169 67.3369V128H934.657V38.4004H948.353L997.761 99.0615ZM888.5 50C885.292 50 882.422 51.4393 880.496 53.7061C876.88 52.3773 872.969 51.7119 868.763 51.7119C864.24 51.7119 860.059 52.4797 856.219 54.0156C852.464 55.5516 849.137 57.7707 846.235 60.6719C843.419 63.4879 841.2 66.8162 839.579 70.6562C838.043 74.4109 837.275 78.5923 837.275 83.2002C837.275 87.7228 838.043 91.9042 839.579 95.7441C841.2 99.5841 843.419 102.955 846.235 105.856C849.051 108.672 852.379 110.848 856.219 112.384C860.059 113.92 864.24 114.688 868.763 114.688C873.285 114.688 877.467 113.92 881.307 112.384C885.147 110.848 888.475 108.672 891.291 105.856C894.107 102.955 896.283 99.6267 897.819 95.8721C899.441 92.0321 900.251 87.8081 900.251 83.2002C900.251 78.5923 899.441 74.4108 897.819 70.6562C897.379 69.556 896.884 68.4986 896.339 67.4824C897.993 65.6267 899 63.1815 899 60.5C899 54.701 894.299 50 888.5 50ZM405.172 88.1924H424.628C431.966 88.1924 437.47 86.6133 441.14 83.4561C444.894 80.2988 446.772 75.9042 446.772 70.2725C446.772 64.5551 444.894 60.1599 441.14 57.0879C437.47 54.016 431.966 52.4805 424.628 52.4805H405.172V88.1924Z" fill="url(#paint11_linear_8_31)"/>
<path d="M784.25 225V163.944H760.634V157.8H814.97V163.944H791.354V225H784.25Z" fill="url(#paint12_linear_8_31)"/>
<path d="M832.655 187.848H868.175V193.896H832.655V187.848ZM833.423 218.856H873.839V225H826.319V157.8H872.399V163.944H833.423V218.856Z" fill="url(#paint13_linear_8_31)"/>
<path d="M919.534 225.576C914.478 225.576 909.806 224.744 905.518 223.08C901.23 221.352 897.518 218.952 894.382 215.88C891.246 212.808 888.782 209.192 886.99 205.032C885.262 200.872 884.398 196.328 884.398 191.4C884.398 186.472 885.262 181.928 886.99 177.768C888.782 173.608 891.246 169.992 894.382 166.92C897.582 163.848 901.326 161.48 905.614 159.816C909.902 158.088 914.574 157.224 919.63 157.224C924.494 157.224 929.07 158.056 933.358 159.72C937.646 161.32 941.262 163.752 944.206 167.016L939.694 171.528C936.942 168.712 933.902 166.696 930.574 165.48C927.246 164.2 923.662 163.56 919.822 163.56C915.79 163.56 912.046 164.264 908.59 165.672C905.134 167.016 902.126 168.968 899.566 171.528C897.006 174.024 894.99 176.968 893.518 180.36C892.11 183.688 891.406 187.368 891.406 191.4C891.406 195.432 892.11 199.144 893.518 202.536C894.99 205.864 897.006 208.808 899.566 211.368C902.126 213.864 905.134 215.816 908.59 217.224C912.046 218.568 915.79 219.24 919.822 219.24C923.662 219.24 927.246 218.6 930.574 217.32C933.902 216.04 936.942 213.992 939.694 211.176L944.206 215.688C941.262 218.952 937.646 221.416 933.358 223.08C929.07 224.744 924.462 225.576 919.534 225.576Z" fill="url(#paint14_linear_8_31)"/>
<path d="M1008.5 157.8H1015.51V225H1008.5V157.8ZM966.454 225H959.35V157.8H966.454V225ZM1009.17 193.992H965.686V187.752H1009.17V193.992Z" fill="url(#paint15_linear_8_31)"/>
<defs>
<linearGradient id="paint0_linear_8_31" x1="213.25" y1="0" x2="213.25" y2="126.5" gradientUnits="userSpaceOnUse">
<stop stop-color="#232F5E"/>
<stop offset="1" stop-color="#273256"/>
</linearGradient>
<linearGradient id="paint1_linear_8_31" x1="129.75" y1="127.5" x2="129.75" y2="254" gradientUnits="userSpaceOnUse">
<stop stop-color="#273256"/>
<stop offset="1" stop-color="#232F5E"/>
</linearGradient>
<linearGradient id="paint2_linear_8_31" x1="171.5" y1="0" x2="171.5" y2="254" gradientUnits="userSpaceOnUse">
<stop stop-color="#6FC1CB"/>
<stop offset="1" stop-color="#6CB9BF"/>
</linearGradient>
<linearGradient id="paint3_linear_8_31" x1="171.5" y1="0" x2="171.5" y2="254" gradientUnits="userSpaceOnUse">
<stop stop-color="#6FC1CB"/>
<stop offset="1" stop-color="#6CB9BF"/>
</linearGradient>
<linearGradient id="paint4_linear_8_31" x1="257" y1="0" x2="257" y2="126.5" gradientUnits="userSpaceOnUse">
<stop stop-color="#293667"/>
<stop offset="1" stop-color="#273256"/>
</linearGradient>
<linearGradient id="paint5_linear_8_31" x1="86" y1="127.5" x2="86" y2="254" gradientUnits="userSpaceOnUse">
<stop stop-color="#273256"/>
<stop offset="1" stop-color="#293667"/>
</linearGradient>
<linearGradient id="paint6_linear_8_31" x1="129.75" y1="0" x2="129.75" y2="126.5" gradientUnits="userSpaceOnUse">
<stop stop-color="#4FA0A4"/>
<stop offset="1" stop-color="#6FC1CB"/>
</linearGradient>
<linearGradient id="paint7_linear_8_31" x1="213.25" y1="127.5" x2="213.25" y2="254" gradientUnits="userSpaceOnUse">
<stop stop-color="#6FC1CB"/>
<stop offset="1" stop-color="#4FA0A4"/>
</linearGradient>
<linearGradient id="paint8_linear_8_31" x1="123.325" y1="89.2528" x2="218.675" y2="163.748" gradientUnits="userSpaceOnUse">
<stop stop-color="#00C4FF"/>
<stop offset="1" stop-color="#24525B"/>
</linearGradient>
<linearGradient id="paint9_linear_8_31" x1="123.325" y1="89.2528" x2="218.675" y2="163.748" gradientUnits="userSpaceOnUse">
<stop stop-color="#234E5B"/>
<stop offset="1" stop-color="#24525B"/>
</linearGradient>
<linearGradient id="paint10_linear_8_31" x1="136.5" y1="126.5" x2="205.5" y2="126.5" gradientUnits="userSpaceOnUse">
<stop stop-color="#000104"/>
<stop offset="1" stop-color="#020605"/>
</linearGradient>
<linearGradient id="paint11_linear_8_31" x1="388.532" y1="83.2002" x2="1014.27" y2="83.2002" gradientUnits="userSpaceOnUse">
<stop stop-color="#000104"/>
<stop offset="1" stop-color="#020605"/>
</linearGradient>
<linearGradient id="paint12_linear_8_31" x1="760.634" y1="191.4" x2="1015.51" y2="191.4" gradientUnits="userSpaceOnUse">
<stop stop-color="#000104"/>
<stop offset="1" stop-color="#020605"/>
</linearGradient>
<linearGradient id="paint13_linear_8_31" x1="760.634" y1="191.4" x2="1015.51" y2="191.4" gradientUnits="userSpaceOnUse">
<stop stop-color="#000104"/>
<stop offset="1" stop-color="#020605"/>
</linearGradient>
<linearGradient id="paint14_linear_8_31" x1="760.634" y1="191.4" x2="1015.51" y2="191.4" gradientUnits="userSpaceOnUse">
<stop stop-color="#000104"/>
<stop offset="1" stop-color="#020605"/>
</linearGradient>
<linearGradient id="paint15_linear_8_31" x1="760.634" y1="191.4" x2="1015.51" y2="191.4" gradientUnits="userSpaceOnUse">
<stop stop-color="#000104"/>
<stop offset="1" stop-color="#020605"/>
</linearGradient>
</defs>
</svg>
