<svg width="1168" height="152" viewBox="0 0 1168 152" fill="none" xmlns="http://www.w3.org/2000/svg">
<path d="M591.464 30.0024C596.84 30.0025 602.173 30.685 607.464 32.0503C612.755 33.4156 617.363 35.378 621.288 37.938L616.04 50.8667C612.03 48.4774 607.891 46.728 603.624 45.6187C599.358 44.424 595.261 43.8267 591.336 43.8267C586.728 43.8267 582.973 44.3814 580.072 45.4907C577.256 46.6 575.165 48.0504 573.8 49.8423C572.52 51.6342 571.88 53.682 571.88 55.9858C571.88 58.7163 572.818 60.9355 574.696 62.6421C576.658 64.2634 579.176 65.5433 582.248 66.4819C585.406 67.4206 588.904 68.3597 592.744 69.2983C596.584 70.1517 600.381 71.1334 604.136 72.2427C607.976 73.352 611.432 74.8022 614.504 76.5942C617.661 78.3862 620.179 80.8182 622.056 83.8901C624.019 86.9621 625 90.8452 625 95.5386C625 100.317 623.678 104.754 621.032 108.85C618.472 112.861 614.504 116.104 609.128 118.579C603.752 120.968 596.968 122.163 588.776 122.163C581.778 122.163 575.08 121.181 568.68 119.218C562.28 117.17 557.203 114.568 553.448 111.411L559.208 98.4819C562.792 101.298 567.229 103.645 572.52 105.522C577.81 107.399 583.229 108.338 588.776 108.338C593.469 108.338 597.267 107.826 600.168 106.802C603.069 105.778 605.202 104.413 606.568 102.707C607.933 100.915 608.616 98.9086 608.616 96.6899C608.616 93.9595 607.635 91.7838 605.672 90.1626C603.71 88.456 601.15 87.1325 597.992 86.1938C594.921 85.1699 591.464 84.2317 587.624 83.3784C583.87 82.5251 580.072 81.5434 576.232 80.4341C572.477 79.2395 569.022 77.7464 565.865 75.9546C562.793 74.0773 560.274 71.6027 558.312 68.5308C556.349 65.4588 555.368 61.533 555.368 56.7544C555.368 51.8904 556.648 47.4526 559.208 43.4419C561.854 39.3462 565.821 36.1036 571.112 33.7144C576.488 31.2397 583.272 30.0024 591.464 30.0024ZM724.231 30.0024C731.228 30.0024 737.628 31.1545 743.431 33.4585C749.319 35.7625 754.439 39.0047 758.791 43.186C763.143 47.282 766.513 52.1468 768.903 57.7788C771.292 63.3254 772.487 69.4266 772.487 76.0825C772.487 82.7384 771.292 88.8822 768.903 94.5142C766.513 100.146 763.143 105.01 758.791 109.106C754.439 113.202 749.319 116.403 743.431 118.707C737.628 121.011 731.271 122.163 724.359 122.163C717.362 122.163 710.919 121.01 705.031 118.707C699.143 116.403 694.023 113.202 689.671 109.106C685.319 104.925 681.948 100.061 679.559 94.5142C677.17 88.8823 675.975 82.7384 675.975 76.0825C675.975 69.4267 677.17 63.3254 679.559 57.7788C681.948 52.1468 685.319 47.282 689.671 43.186C694.023 39.0048 699.144 35.7625 705.031 33.4585C710.919 31.1546 717.319 30.0025 724.231 30.0024ZM280.864 31.2827C288.8 31.2827 295.584 32.5626 301.216 35.1226C306.933 37.6825 311.328 41.3518 314.4 46.1304C317.472 50.909 319.008 56.5841 319.008 63.1548C319.008 69.7253 317.472 75.3997 314.4 80.1782C311.328 84.8715 306.933 88.4981 301.216 91.0581C300.816 91.2337 300.411 91.4028 299.999 91.5659L320.544 120.882H302.624L284.368 94.686C283.226 94.7421 282.058 94.77 280.864 94.77H260.64V120.882H244V31.2827H280.864ZM422.105 120.882H404.697L395.791 100.146H359.468L363.948 87.0903H390.184L373.343 47.8774L342.105 120.882H324.953L365.273 31.2827H381.657L422.105 120.882ZM463.913 100.352L494.03 31.2827H510.67L471.63 120.882H455.246L416.078 31.2827H434.126L463.913 100.352ZM536.765 120.882H520.125V31.2827H536.765V120.882ZM658.14 120.882H641.5V31.2827H658.14V120.882ZM853.229 91.9438V31.2827H869.741V120.882H856.045L806.637 60.2192V120.882H790.125V31.2827H803.821L853.229 91.9438ZM743.968 42.8823C740.76 42.8823 737.89 44.3216 735.964 46.5884C732.348 45.2597 728.437 44.5942 724.231 44.5942C719.708 44.5943 715.527 45.362 711.687 46.8979C707.932 48.4339 704.605 50.653 701.703 53.5542C698.887 56.3702 696.668 59.6986 695.047 63.5386C693.511 67.2932 692.743 71.4746 692.743 76.0825C692.743 80.6051 693.511 84.7865 695.047 88.6265C696.668 92.4664 698.887 95.8375 701.703 98.7388C704.519 101.555 707.847 103.73 711.687 105.266C715.527 106.802 719.708 107.571 724.231 107.571C728.753 107.571 732.935 106.802 736.775 105.266C740.615 103.73 743.943 101.555 746.759 98.7388C749.575 95.8374 751.751 92.5091 753.287 88.7544C754.909 84.9145 755.719 80.6904 755.719 76.0825C755.719 71.4747 754.909 67.2932 753.287 63.5386C752.847 62.4383 752.352 61.381 751.807 60.3647C753.461 58.509 754.468 56.0639 754.468 53.3823C754.468 47.5833 749.767 42.8823 743.968 42.8823ZM260.64 81.0747H280.096C287.434 81.0747 292.938 79.4956 296.608 76.3384C300.362 73.1811 302.24 68.7866 302.24 63.1548C302.24 57.4375 300.362 53.0422 296.608 49.9702C292.938 46.8984 287.434 45.3628 280.096 45.3628H260.64V81.0747Z" fill="url(#paint0_linear_201_37)"/>
<path d="M936.616 121.778V60.7224H913V54.5784H967.336V60.7224H943.72V121.778H936.616Z" fill="url(#paint1_linear_201_37)"/>
<path d="M985.021 84.6264H1020.54V90.6744H985.021V84.6264ZM985.789 115.634H1026.21V121.778H978.685V54.5784H1024.77V60.7224H985.789V115.634Z" fill="url(#paint2_linear_201_37)"/>
<path d="M1071.9 122.354C1066.84 122.354 1062.17 121.522 1057.88 119.858C1053.6 118.13 1049.88 115.73 1046.75 112.658C1043.61 109.586 1041.15 105.97 1039.36 101.81C1037.63 97.6504 1036.76 93.1064 1036.76 88.1784C1036.76 83.2504 1037.63 78.7064 1039.36 74.5464C1041.15 70.3864 1043.61 66.7704 1046.75 63.6984C1049.95 60.6264 1053.69 58.2584 1057.98 56.5944C1062.27 54.8664 1066.94 54.0024 1072 54.0024C1076.86 54.0024 1081.44 54.8344 1085.72 56.4984C1090.01 58.0984 1093.63 60.5304 1096.57 63.7944L1092.06 68.3064C1089.31 65.4904 1086.27 63.4744 1082.94 62.2584C1079.61 60.9784 1076.03 60.3384 1072.19 60.3384C1068.16 60.3384 1064.41 61.0424 1060.96 62.4504C1057.5 63.7944 1054.49 65.7464 1051.93 68.3064C1049.37 70.8024 1047.36 73.7464 1045.88 77.1384C1044.48 80.4664 1043.77 84.1464 1043.77 88.1784C1043.77 92.2104 1044.48 95.9224 1045.88 99.3144C1047.36 102.642 1049.37 105.586 1051.93 108.146C1054.49 110.642 1057.5 112.594 1060.96 114.002C1064.41 115.346 1068.16 116.018 1072.19 116.018C1076.03 116.018 1079.61 115.378 1082.94 114.098C1086.27 112.818 1089.31 110.77 1092.06 107.954L1096.57 112.466C1093.63 115.73 1090.01 118.194 1085.72 119.858C1081.44 121.522 1076.83 122.354 1071.9 122.354Z" fill="url(#paint3_linear_201_37)"/>
<path d="M1160.87 54.5784H1167.88V121.778H1160.87V54.5784ZM1118.82 121.778H1111.72V54.5784H1118.82V121.778ZM1161.54 90.7704H1118.05V84.5304H1161.54V90.7704Z" fill="url(#paint4_linear_201_37)"/>
<path d="M102.63 123.276L0 76L102.63 28.7244L205.26 76L102.63 123.276Z" fill="white"/>
<path d="M131.412 98.243C125.743 105.499 117.522 110.323 108.421 111.732L102.883 75.9531L131.412 98.243Z" fill="url(#paint5_linear_201_37)"/>
<path d="M131.412 98.243C136.599 91.604 139.309 83.3639 139.073 74.9422C138.838 66.5205 135.673 58.4445 130.124 52.1054C124.574 45.7664 116.988 41.5611 108.671 40.2141C100.355 38.8671 91.8285 40.4627 84.5619 44.726C77.2952 48.9894 71.7429 55.6535 68.8614 63.5704C65.9799 71.4872 65.9496 80.1612 68.7758 88.098C71.6019 96.0348 77.1076 102.738 84.3443 107.052C91.581 111.365 100.096 113.021 108.421 111.732L102.883 75.9531L131.412 98.243Z" fill="url(#paint6_linear_201_37)"/>
<circle cx="102.882" cy="75.953" r="20.6457" fill="#000104"/>
<circle cx="117.245" cy="61.5908" r="6.28346" fill="white"/>
<path d="M50.5668 10.4724L0.299072 75.7008H0.598285L102.63 28.7244V0L50.5668 10.4724Z" fill="#FF0000"/>
<path d="M50.5668 10.4724L0.299072 75.7008H0.598285L102.63 28.7244V0L50.5668 10.4724Z" fill="#FF0000"/>
<path d="M154.693 10.4724L204.961 75.7008H204.661L102.63 28.7244V0L154.693 10.4724Z" fill="#FF0000"/>
<path d="M154.693 10.4724L204.961 75.7008H204.661L102.63 28.7244V0L154.693 10.4724Z" fill="#FF0000"/>
<path d="M154.693 141.528L204.961 76.2992H204.661L102.63 123.276V152L154.693 141.528Z" fill="#FF0000"/>
<path d="M154.693 141.528L204.961 76.2992H204.661L102.63 123.276V152L154.693 141.528Z" fill="#FF0000"/>
<path d="M50.5668 141.528L0.299072 76.2992H0.598285L102.63 123.276V152L50.5668 141.528Z" fill="#FF0000"/>
<path d="M50.5668 141.528L0.299072 76.2992H0.598285L102.63 123.276V152L50.5668 141.528Z" fill="#FF0000"/>
<path d="M102.63 0L204.661 75.7008L102.63 28.7244L50.5669 10.4724L102.63 0Z" fill="url(#paint7_linear_201_37)"/>
<path d="M102.63 152L0.598389 76.2993L102.63 123.276L154.693 141.528L102.63 152Z" fill="url(#paint8_linear_201_37)"/>
<path d="M50.5669 10.4724L0 76L0.598425 75.7008L102.63 0L50.5669 10.4724Z" fill="url(#paint9_linear_201_37)"/>
<path d="M154.693 141.528L102.63 152L204.661 76.2992L205.26 76L154.693 141.528Z" fill="url(#paint10_linear_201_37)"/>
<path d="M154.693 10.4724L205.26 76L204.661 75.7008L102.63 0L154.693 10.4724Z" fill="url(#paint11_linear_201_37)"/>
<path d="M50.5669 141.528L0 76L0.598425 76.2992L102.63 152L50.5669 141.528Z" fill="url(#paint12_linear_201_37)"/>
<path d="M102.63 0L154.693 10.4724L102.63 28.7244L0.598389 75.7008L102.63 0Z" fill="url(#paint13_linear_201_37)"/>
<path d="M102.63 123.276L204.661 76.2993L102.63 152L50.5669 141.528L102.63 123.276Z" fill="url(#paint14_linear_201_37)"/>
<path d="M116.992 35.3071L154.693 10.4724L102.63 28.7244L116.992 35.3071Z" fill="black" fill-opacity="0.15"/>
<path d="M88.2677 116.693L50.5669 141.528L102.63 123.276L88.2677 116.693Z" fill="black" fill-opacity="0.15"/>
<defs>
<linearGradient id="paint0_linear_201_37" x1="244" y1="76.0825" x2="869.741" y2="76.0825" gradientUnits="userSpaceOnUse">
<stop stop-color="#000104"/>
<stop offset="1" stop-color="#020605"/>
</linearGradient>
<linearGradient id="paint1_linear_201_37" x1="913" y1="88.1784" x2="1167.88" y2="88.1784" gradientUnits="userSpaceOnUse">
<stop stop-color="#000104"/>
<stop offset="1" stop-color="#020605"/>
</linearGradient>
<linearGradient id="paint2_linear_201_37" x1="913" y1="88.1784" x2="1167.88" y2="88.1784" gradientUnits="userSpaceOnUse">
<stop stop-color="#000104"/>
<stop offset="1" stop-color="#020605"/>
</linearGradient>
<linearGradient id="paint3_linear_201_37" x1="913" y1="88.1784" x2="1167.88" y2="88.1784" gradientUnits="userSpaceOnUse">
<stop stop-color="#000104"/>
<stop offset="1" stop-color="#020605"/>
</linearGradient>
<linearGradient id="paint4_linear_201_37" x1="913" y1="88.1784" x2="1167.88" y2="88.1784" gradientUnits="userSpaceOnUse">
<stop stop-color="#000104"/>
<stop offset="1" stop-color="#020605"/>
</linearGradient>
<linearGradient id="paint5_linear_201_37" x1="74.353" y1="53.6633" x2="131.412" y2="98.243" gradientUnits="userSpaceOnUse">
<stop stop-color="#00C4FF"/>
<stop offset="1" stop-color="#24525B"/>
</linearGradient>
<linearGradient id="paint6_linear_201_37" x1="74.353" y1="53.6633" x2="131.412" y2="98.243" gradientUnits="userSpaceOnUse">
<stop stop-color="#234E5B"/>
<stop offset="1" stop-color="#24525B"/>
</linearGradient>
<linearGradient id="paint7_linear_201_37" x1="127.614" y1="0" x2="127.614" y2="75.7008" gradientUnits="userSpaceOnUse">
<stop stop-color="#232F5E"/>
<stop offset="1" stop-color="#273256"/>
</linearGradient>
<linearGradient id="paint8_linear_201_37" x1="77.6456" y1="76.2993" x2="77.6456" y2="152" gradientUnits="userSpaceOnUse">
<stop stop-color="#273256"/>
<stop offset="1" stop-color="#232F5E"/>
</linearGradient>
<linearGradient id="paint9_linear_201_37" x1="102.63" y1="0" x2="102.63" y2="152" gradientUnits="userSpaceOnUse">
<stop stop-color="#6FC1CB"/>
<stop offset="1" stop-color="#6CB9BF"/>
</linearGradient>
<linearGradient id="paint10_linear_201_37" x1="102.63" y1="0" x2="102.63" y2="152" gradientUnits="userSpaceOnUse">
<stop stop-color="#6FC1CB"/>
<stop offset="1" stop-color="#6CB9BF"/>
</linearGradient>
<linearGradient id="paint11_linear_201_37" x1="153.795" y1="0" x2="153.795" y2="75.7008" gradientUnits="userSpaceOnUse">
<stop stop-color="#293667"/>
<stop offset="1" stop-color="#273256"/>
</linearGradient>
<linearGradient id="paint12_linear_201_37" x1="51.4646" y1="76.2992" x2="51.4646" y2="152" gradientUnits="userSpaceOnUse">
<stop stop-color="#273256"/>
<stop offset="1" stop-color="#293667"/>
</linearGradient>
<linearGradient id="paint13_linear_201_37" x1="77.6456" y1="0" x2="77.6456" y2="75.7008" gradientUnits="userSpaceOnUse">
<stop stop-color="#4FA0A4"/>
<stop offset="1" stop-color="#6FC1CB"/>
</linearGradient>
<linearGradient id="paint14_linear_201_37" x1="127.614" y1="76.2993" x2="127.614" y2="152" gradientUnits="userSpaceOnUse">
<stop stop-color="#6FC1CB"/>
<stop offset="1" stop-color="#4FA0A4"/>
</linearGradient>
</defs>
</svg>
