<svg width="924" height="93" viewBox="0 0 924 93" fill="none" xmlns="http://www.w3.org/2000/svg">
<path d="M347.464 0C352.84 1.0334e-05 358.173 0.682526 363.464 2.04785C368.754 3.41318 373.363 5.37556 377.288 7.93555L372.04 20.8643C368.029 18.475 363.891 16.7255 359.624 15.6162C355.357 14.4216 351.261 13.8242 347.336 13.8242C342.728 13.8242 338.973 14.3789 336.071 15.4883C333.256 16.5976 331.165 18.048 329.8 19.8398C328.52 21.6317 327.88 23.6796 327.88 25.9834C327.88 28.7139 328.818 30.933 330.695 32.6396C332.658 34.261 335.176 35.5408 338.248 36.4795C341.405 37.4181 344.904 38.3572 348.744 39.2959C352.584 40.1492 356.381 41.1309 360.136 42.2402C363.976 43.3496 367.432 44.7998 370.504 46.5918C373.661 48.3838 376.178 50.8158 378.056 53.8877C380.018 56.9597 381 60.8428 381 65.5361C381 70.3146 379.677 74.7518 377.032 78.8477C374.472 82.8583 370.504 86.1015 365.128 88.5762C359.752 90.9655 352.967 92.1602 344.775 92.1602C337.778 92.1601 331.08 91.1785 324.68 89.2158C318.28 87.1679 313.203 84.5654 309.448 81.4082L315.208 68.4795C318.792 71.2954 323.229 73.6422 328.52 75.5195C333.81 77.3968 339.229 78.3359 344.775 78.3359C349.469 78.3359 353.267 77.8238 356.168 76.7998C359.069 75.7759 361.202 74.4106 362.567 72.7041C363.933 70.9121 364.616 68.9062 364.616 66.6875C364.616 63.9571 363.634 61.7814 361.672 60.1602C359.709 58.4535 357.149 57.1301 353.992 56.1914C350.92 55.1674 347.464 54.2293 343.624 53.376C339.869 52.5226 336.071 51.541 332.231 50.4316C328.477 49.2371 325.021 47.744 321.864 45.9521C318.792 44.0749 316.274 41.6002 314.312 38.5283C312.349 35.4563 311.368 31.5306 311.368 26.752C311.368 21.888 312.648 17.4501 315.208 13.4395C317.853 9.34374 321.821 6.10115 327.111 3.71191C332.487 1.23725 339.272 0 347.464 0ZM480.23 0C487.228 0 493.628 1.15206 499.431 3.45605C505.319 5.76005 510.439 9.00227 514.791 13.1836C519.143 17.2796 522.513 22.1444 524.902 27.7764C527.292 33.323 528.486 39.4242 528.486 46.0801C528.486 52.736 527.292 58.8798 524.902 64.5117C522.513 70.1436 519.143 75.0076 514.791 79.1035C510.439 83.1995 505.319 86.4001 499.431 88.7041C493.628 91.0081 487.27 92.1602 480.358 92.1602C473.361 92.1601 466.919 91.0079 461.031 88.7041C455.143 86.4001 450.023 83.1995 445.671 79.1035C441.319 74.9222 437.948 70.0583 435.559 64.5117C433.169 58.8798 431.975 52.7359 431.975 46.0801C431.975 39.4243 433.169 33.3229 435.559 27.7764C437.948 22.1444 441.319 17.2796 445.671 13.1836C450.023 9.00237 455.143 5.76002 461.031 3.45605C466.919 1.15218 473.319 3.39081e-05 480.23 0ZM36.8633 1.28027C44.7993 1.28027 51.5838 2.56011 57.2158 5.12012C62.933 7.68009 67.3274 11.3494 70.3994 16.1279C73.4714 20.9066 75.0078 26.5817 75.0078 33.1523C75.0077 39.7228 73.4713 45.3972 70.3994 50.1758C67.3274 54.869 62.9331 58.4957 57.2158 61.0557C56.8161 61.2313 56.4103 61.4003 55.999 61.5635L76.5439 90.8799H58.624L40.3682 64.6836C39.2261 64.7396 38.0575 64.7676 36.8633 64.7676H16.6396V90.8799H0V1.28027H36.8633ZM178.104 90.8799H160.696L151.791 70.1436H115.468L119.948 57.0879H146.184L129.343 17.875L98.1045 90.8799H80.9531L121.272 1.28027H137.657L178.104 90.8799ZM219.913 70.3496L250.029 1.28027H266.67L227.63 90.8799H211.246L172.078 1.28027H190.126L219.913 70.3496ZM292.765 90.8799H276.125V1.28027H292.765V90.8799ZM414.14 90.8799H397.5V1.28027H414.14V90.8799ZM609.229 61.9414V1.28027H625.741V90.8799H612.045L562.637 30.2168V90.8799H546.125V1.28027H559.82L609.229 61.9414ZM499.968 12.8799C496.76 12.8799 493.89 14.3192 491.964 16.5859C488.348 15.2572 484.437 14.5918 480.23 14.5918C475.708 14.5918 471.526 15.3595 467.687 16.8955C463.932 18.4315 460.604 20.6506 457.703 23.5518C454.887 26.3678 452.668 29.6961 451.047 33.5361C449.511 37.2908 448.743 41.4721 448.743 46.0801C448.743 50.6027 449.511 54.7841 451.047 58.624C452.668 62.464 454.887 65.835 457.703 68.7363C460.519 71.5521 463.847 73.7278 467.687 75.2637C471.526 76.7996 475.708 77.5683 480.23 77.5684C484.753 77.5684 488.934 76.7996 492.774 75.2637C496.614 73.7277 499.943 71.5522 502.759 68.7363C505.575 65.835 507.751 62.5066 509.287 58.752C510.908 54.912 511.719 50.688 511.719 46.0801C511.719 41.4722 510.908 37.2907 509.287 33.5361C508.847 32.4359 508.352 31.3785 507.807 30.3623C509.461 28.5066 510.468 26.0614 510.468 23.3799C510.468 17.5809 505.767 12.8799 499.968 12.8799ZM16.6396 51.0723H36.0957C43.4342 51.0723 48.9381 49.4931 52.6074 46.3359C56.362 43.1787 58.2401 38.7841 58.2402 33.1523C58.2402 27.435 56.3621 23.0398 52.6074 19.9678C48.9381 16.8959 43.4342 15.3604 36.0957 15.3604H16.6396V51.0723Z" fill="white"/>
<path d="M692.616 91.776V30.72H669V24.576H723.336V30.72H699.72V91.776H692.616Z" fill="white"/>
<path d="M741.021 54.624H776.541V60.672H741.021V54.624ZM741.789 85.632H782.205V91.776H734.685V24.576H780.765V30.72H741.789V85.632Z" fill="white"/>
<path d="M827.9 92.352C822.844 92.352 818.172 91.52 813.884 89.856C809.596 88.128 805.884 85.728 802.748 82.656C799.612 79.584 797.148 75.968 795.356 71.808C793.628 67.648 792.764 63.104 792.764 58.176C792.764 53.248 793.628 48.704 795.356 44.544C797.148 40.384 799.612 36.768 802.748 33.696C805.948 30.624 809.692 28.256 813.98 26.592C818.268 24.864 822.94 24 827.996 24C832.86 24 837.436 24.832 841.724 26.496C846.012 28.096 849.628 30.528 852.572 33.792L848.06 38.304C845.308 35.488 842.268 33.472 838.94 32.256C835.612 30.976 832.028 30.336 828.188 30.336C824.156 30.336 820.412 31.04 816.956 32.448C813.5 33.792 810.492 35.744 807.932 38.304C805.372 40.8 803.356 43.744 801.884 47.136C800.476 50.464 799.772 54.144 799.772 58.176C799.772 62.208 800.476 65.92 801.884 69.312C803.356 72.64 805.372 75.584 807.932 78.144C810.492 80.64 813.5 82.592 816.956 84C820.412 85.344 824.156 86.016 828.188 86.016C832.028 86.016 835.612 85.376 838.94 84.096C842.268 82.816 845.308 80.768 848.06 77.952L852.572 82.464C849.628 85.728 846.012 88.192 841.724 89.856C837.436 91.52 832.828 92.352 827.9 92.352Z" fill="white"/>
<path d="M916.868 24.576H923.876V91.776H916.868V24.576ZM874.82 91.776H867.716V24.576H874.82V91.776ZM917.54 60.768H874.052V54.528H917.54V60.768Z" fill="white"/>
</svg>
