<svg width="627" height="189" viewBox="0 0 627 189" fill="none" xmlns="http://www.w3.org/2000/svg">
<path d="M347.464 0C352.84 1.0334e-05 358.173 0.682526 363.464 2.04785C368.754 3.41318 373.363 5.37556 377.288 7.93555L372.04 20.8643C368.029 18.475 363.891 16.7255 359.624 15.6162C355.357 14.4216 351.261 13.8242 347.336 13.8242C342.728 13.8242 338.973 14.3789 336.071 15.4883C333.256 16.5976 331.165 18.048 329.8 19.8398C328.52 21.6317 327.88 23.6796 327.88 25.9834C327.88 28.7139 328.818 30.933 330.695 32.6396C332.658 34.261 335.176 35.5408 338.248 36.4795C341.405 37.4181 344.904 38.3572 348.744 39.2959C352.584 40.1492 356.381 41.1309 360.136 42.2402C363.976 43.3496 367.432 44.7998 370.504 46.5918C373.661 48.3838 376.178 50.8158 378.056 53.8877C380.018 56.9597 381 60.8428 381 65.5361C381 70.3146 379.677 74.7518 377.032 78.8477C374.472 82.8583 370.504 86.1015 365.128 88.5762C359.752 90.9655 352.967 92.1602 344.775 92.1602C337.778 92.1601 331.08 91.1785 324.68 89.2158C318.28 87.1679 313.203 84.5654 309.448 81.4082L315.208 68.4795C318.792 71.2954 323.229 73.6422 328.52 75.5195C333.81 77.3968 339.229 78.3359 344.775 78.3359C349.469 78.3359 353.267 77.8238 356.168 76.7998C359.069 75.7759 361.202 74.4106 362.567 72.7041C363.933 70.9121 364.616 68.9062 364.616 66.6875C364.616 63.9571 363.634 61.7814 361.672 60.1602C359.709 58.4535 357.149 57.1301 353.992 56.1914C350.92 55.1674 347.464 54.2293 343.624 53.376C339.869 52.5226 336.071 51.541 332.231 50.4316C328.477 49.2371 325.021 47.744 321.864 45.9521C318.792 44.0749 316.274 41.6002 314.312 38.5283C312.349 35.4563 311.368 31.5306 311.368 26.752C311.368 21.888 312.648 17.4501 315.208 13.4395C317.853 9.34374 321.821 6.10115 327.111 3.71191C332.487 1.23725 339.272 0 347.464 0ZM480.23 0C487.228 0 493.628 1.15206 499.431 3.45605C505.319 5.76005 510.439 9.00227 514.791 13.1836C519.143 17.2796 522.513 22.1444 524.902 27.7764C527.292 33.323 528.486 39.4242 528.486 46.0801C528.486 52.736 527.292 58.8798 524.902 64.5117C522.513 70.1436 519.143 75.0076 514.791 79.1035C510.439 83.1995 505.319 86.4001 499.431 88.7041C493.628 91.0081 487.27 92.1602 480.358 92.1602C473.361 92.1601 466.919 91.0079 461.031 88.7041C455.143 86.4001 450.023 83.1995 445.671 79.1035C441.319 74.9222 437.948 70.0583 435.559 64.5117C433.169 58.8798 431.975 52.7359 431.975 46.0801C431.975 39.4243 433.169 33.3229 435.559 27.7764C437.948 22.1444 441.319 17.2796 445.671 13.1836C450.023 9.00237 455.143 5.76002 461.031 3.45605C466.919 1.15218 473.319 3.39081e-05 480.23 0ZM36.8633 1.28027C44.7993 1.28027 51.5838 2.56011 57.2158 5.12012C62.933 7.68009 67.3274 11.3494 70.3994 16.1279C73.4714 20.9066 75.0078 26.5817 75.0078 33.1523C75.0077 39.7228 73.4713 45.3972 70.3994 50.1758C67.3274 54.869 62.9331 58.4957 57.2158 61.0557C56.8161 61.2313 56.4103 61.4003 55.999 61.5635L76.5439 90.8799H58.624L40.3682 64.6836C39.2261 64.7396 38.0575 64.7676 36.8633 64.7676H16.6396V90.8799H0V1.28027H36.8633ZM178.104 90.8799H160.696L151.791 70.1436H115.468L119.948 57.0879H146.184L129.343 17.875L98.1045 90.8799H80.9531L121.272 1.28027H137.657L178.104 90.8799ZM219.913 70.3496L250.029 1.28027H266.67L227.63 90.8799H211.246L172.078 1.28027H190.126L219.913 70.3496ZM292.765 90.8799H276.125V1.28027H292.765V90.8799ZM414.14 90.8799H397.5V1.28027H414.14V90.8799ZM609.229 61.9414V1.28027H625.741V90.8799H612.045L562.637 30.2168V90.8799H546.125V1.28027H559.82L609.229 61.9414ZM499.968 12.8799C496.76 12.8799 493.89 14.3192 491.964 16.5859C488.348 15.2572 484.437 14.5918 480.23 14.5918C475.708 14.5918 471.526 15.3595 467.687 16.8955C463.932 18.4315 460.604 20.6506 457.703 23.5518C454.887 26.3678 452.668 29.6961 451.047 33.5361C449.511 37.2908 448.743 41.4721 448.743 46.0801C448.743 50.6027 449.511 54.7841 451.047 58.624C452.668 62.464 454.887 65.835 457.703 68.7363C460.519 71.5521 463.847 73.7278 467.687 75.2637C471.526 76.7996 475.708 77.5683 480.23 77.5684C484.753 77.5684 488.934 76.7996 492.774 75.2637C496.614 73.7277 499.943 71.5522 502.759 68.7363C505.575 65.835 507.751 62.5066 509.287 58.752C510.908 54.912 511.719 50.688 511.719 46.0801C511.719 41.4722 510.908 37.2907 509.287 33.5361C508.847 32.4359 508.352 31.3785 507.807 30.3623C509.461 28.5066 510.468 26.0614 510.468 23.3799C510.468 17.5809 505.767 12.8799 499.968 12.8799ZM16.6396 51.0723H36.0957C43.4342 51.0723 48.9381 49.4931 52.6074 46.3359C56.362 43.1787 58.2401 38.7841 58.2402 33.1523C58.2402 27.435 56.3621 23.0398 52.6074 19.9678C48.9381 16.8959 43.4342 15.3604 36.0957 15.3604H16.6396V51.0723Z" fill="url(#paint0_linear_8_109)"/>
<path d="M395.718 187.88V126.824H372.102V120.68H426.438V126.824H402.822V187.88H395.718Z" fill="url(#paint1_linear_8_109)"/>
<path d="M444.123 150.728H479.643V156.776H444.123V150.728ZM444.891 181.736H485.307V187.88H437.787V120.68H483.867V126.824H444.891V181.736Z" fill="url(#paint2_linear_8_109)"/>
<path d="M531.002 188.456C525.946 188.456 521.274 187.624 516.986 185.96C512.698 184.232 508.986 181.832 505.85 178.76C502.714 175.688 500.25 172.072 498.458 167.912C496.73 163.752 495.866 159.208 495.866 154.28C495.866 149.352 496.73 144.808 498.458 140.648C500.25 136.488 502.714 132.872 505.85 129.8C509.05 126.728 512.794 124.36 517.082 122.696C521.37 120.968 526.042 120.104 531.098 120.104C535.962 120.104 540.538 120.936 544.826 122.6C549.114 124.2 552.73 126.632 555.674 129.896L551.162 134.408C548.41 131.592 545.37 129.576 542.042 128.36C538.714 127.08 535.13 126.44 531.29 126.44C527.258 126.44 523.514 127.144 520.058 128.552C516.602 129.896 513.594 131.848 511.034 134.408C508.474 136.904 506.458 139.848 504.986 143.24C503.578 146.568 502.874 150.248 502.874 154.28C502.874 158.312 503.578 162.024 504.986 165.416C506.458 168.744 508.474 171.688 511.034 174.248C513.594 176.744 516.602 178.696 520.058 180.104C523.514 181.448 527.258 182.12 531.29 182.12C535.13 182.12 538.714 181.48 542.042 180.2C545.37 178.92 548.41 176.872 551.162 174.056L555.674 178.568C552.73 181.832 549.114 184.296 544.826 185.96C540.538 187.624 535.93 188.456 531.002 188.456Z" fill="url(#paint3_linear_8_109)"/>
<path d="M619.97 120.68H626.978V187.88H619.97V120.68ZM577.922 187.88H570.818V120.68H577.922V187.88ZM620.642 156.872H577.154V150.632H620.642V156.872Z" fill="url(#paint4_linear_8_109)"/>
<defs>
<linearGradient id="paint0_linear_8_109" x1="0" y1="46.0801" x2="625.741" y2="46.0801" gradientUnits="userSpaceOnUse">
<stop stop-color="#000104"/>
<stop offset="1" stop-color="#020605"/>
</linearGradient>
<linearGradient id="paint1_linear_8_109" x1="372.102" y1="154.28" x2="626.978" y2="154.28" gradientUnits="userSpaceOnUse">
<stop stop-color="#000104"/>
<stop offset="1" stop-color="#020605"/>
</linearGradient>
<linearGradient id="paint2_linear_8_109" x1="372.102" y1="154.28" x2="626.978" y2="154.28" gradientUnits="userSpaceOnUse">
<stop stop-color="#000104"/>
<stop offset="1" stop-color="#020605"/>
</linearGradient>
<linearGradient id="paint3_linear_8_109" x1="372.102" y1="154.28" x2="626.978" y2="154.28" gradientUnits="userSpaceOnUse">
<stop stop-color="#000104"/>
<stop offset="1" stop-color="#020605"/>
</linearGradient>
<linearGradient id="paint4_linear_8_109" x1="372.102" y1="154.28" x2="626.978" y2="154.28" gradientUnits="userSpaceOnUse">
<stop stop-color="#000104"/>
<stop offset="1" stop-color="#020605"/>
</linearGradient>
</defs>
</svg>
