<svg width="343" height="254" viewBox="0 0 343 254" fill="none" xmlns="http://www.w3.org/2000/svg">
<path d="M219.597 164.17C210.123 176.296 196.385 184.356 181.178 186.71L171.922 126.922L219.597 164.17Z" fill="url(#paint0_linear_91_108)"/>
<path d="M219.597 164.17C228.264 153.076 232.792 139.306 232.399 125.233C232.005 111.16 226.717 97.6643 217.443 87.0714C208.17 76.4785 195.492 69.4513 181.595 67.2004C167.697 64.9495 153.45 67.6158 141.307 74.74C129.164 81.8643 119.886 93.0003 115.071 106.23C110.256 119.459 110.205 133.954 114.928 147.217C119.65 160.48 128.851 171.68 140.944 178.889C153.036 186.098 167.265 188.864 181.178 186.71L171.922 126.922L219.597 164.17Z" fill="url(#paint1_linear_91_108)"/>
<circle cx="171.922" cy="126.922" r="34.5" fill="#000104"/>
<circle cx="195.922" cy="102.922" r="10.5" fill="white"/>
<defs>
<linearGradient id="paint0_linear_91_108" x1="124.247" y1="89.6746" x2="219.597" y2="164.17" gradientUnits="userSpaceOnUse">
<stop stop-color="#00C4FF"/>
<stop offset="1" stop-color="#24525B"/>
</linearGradient>
<linearGradient id="paint1_linear_91_108" x1="124.247" y1="89.6746" x2="219.597" y2="164.17" gradientUnits="userSpaceOnUse">
<stop stop-color="#234E5B"/>
<stop offset="1" stop-color="#24525B"/>
</linearGradient>
</defs>
</svg>
