<svg width="343" height="254" viewBox="0 0 343 254" fill="none" xmlns="http://www.w3.org/2000/svg">
<g clip-path="url(#clip0_91_107)">
<path d="M84.5 17.5L0.5 126.5H1L171.5 48V-1.52588e-05L84.5 17.5Z" fill="#FF0000"/>
<path d="M84.5 17.5L0.5 126.5H1L171.5 48V-1.52588e-05L84.5 17.5Z" fill="#FF0000"/>
<path d="M258.5 17.5L342.5 126.5H342L171.5 48V-1.52588e-05L258.5 17.5Z" fill="#FF0000"/>
<path d="M258.5 17.5L342.5 126.5H342L171.5 48V-1.52588e-05L258.5 17.5Z" fill="#FF0000"/>
<path d="M258.5 236.5L342.5 127.5H342L171.5 206V254L258.5 236.5Z" fill="#FF0000"/>
<path d="M258.5 236.5L342.5 127.5H342L171.5 206V254L258.5 236.5Z" fill="#FF0000"/>
<path d="M84.5 236.5L0.5 127.5H1L171.5 206V254L84.5 236.5Z" fill="#FF0000"/>
<path d="M84.5 236.5L0.5 127.5H1L171.5 206V254L84.5 236.5Z" fill="#FF0000"/>
<path d="M171.5 -1.52588e-05L342 126.5L171.5 48L84.5 17.5L171.5 -1.52588e-05Z" fill="url(#paint0_linear_91_107)"/>
<path d="M171.5 254L1 127.5L171.5 206L258.5 236.5L171.5 254Z" fill="url(#paint1_linear_91_107)"/>
<path d="M84.5 17.5L0 127L1 126.5L171.5 -1.52588e-05L84.5 17.5Z" fill="url(#paint2_linear_91_107)"/>
<path d="M258.5 236.5L171.5 254L342 127.5L343 127L258.5 236.5Z" fill="url(#paint3_linear_91_107)"/>
<path d="M258.5 17.5L343 127L342 126.5L171.5 -1.52588e-05L258.5 17.5Z" fill="url(#paint4_linear_91_107)"/>
<path d="M84.5 236.5L0 127L1 127.5L171.5 254L84.5 236.5Z" fill="url(#paint5_linear_91_107)"/>
<path d="M171.5 -1.52588e-05L258.5 17.5L171.5 48L1 126.5L171.5 -1.52588e-05Z" fill="url(#paint6_linear_91_107)"/>
<path d="M171.5 206L342 127.5L171.5 254L84.5 236.5L171.5 206Z" fill="url(#paint7_linear_91_107)"/>
<path d="M195.5 59L258.5 17.5L171.5 48L195.5 59Z" fill="black" fill-opacity="0.15"/>
<path d="M147.5 195L84.5 236.5L171.5 206L147.5 195Z" fill="black" fill-opacity="0.15"/>
</g>
<defs>
<linearGradient id="paint0_linear_91_107" x1="213.25" y1="-1.52588e-05" x2="213.25" y2="126.5" gradientUnits="userSpaceOnUse">
<stop stop-color="#232F5E"/>
<stop offset="1" stop-color="#273256"/>
</linearGradient>
<linearGradient id="paint1_linear_91_107" x1="129.75" y1="127.5" x2="129.75" y2="254" gradientUnits="userSpaceOnUse">
<stop stop-color="#273256"/>
<stop offset="1" stop-color="#232F5E"/>
</linearGradient>
<linearGradient id="paint2_linear_91_107" x1="171.5" y1="-1.52588e-05" x2="171.5" y2="254" gradientUnits="userSpaceOnUse">
<stop stop-color="#6FC1CB"/>
<stop offset="1" stop-color="#6CB9BF"/>
</linearGradient>
<linearGradient id="paint3_linear_91_107" x1="171.5" y1="-1.52588e-05" x2="171.5" y2="254" gradientUnits="userSpaceOnUse">
<stop stop-color="#6FC1CB"/>
<stop offset="1" stop-color="#6CB9BF"/>
</linearGradient>
<linearGradient id="paint4_linear_91_107" x1="257" y1="-1.52588e-05" x2="257" y2="126.5" gradientUnits="userSpaceOnUse">
<stop stop-color="#293667"/>
<stop offset="1" stop-color="#273256"/>
</linearGradient>
<linearGradient id="paint5_linear_91_107" x1="86" y1="127.5" x2="86" y2="254" gradientUnits="userSpaceOnUse">
<stop stop-color="#273256"/>
<stop offset="1" stop-color="#293667"/>
</linearGradient>
<linearGradient id="paint6_linear_91_107" x1="129.75" y1="-1.52588e-05" x2="129.75" y2="126.5" gradientUnits="userSpaceOnUse">
<stop stop-color="#4FA0A4"/>
<stop offset="1" stop-color="#6FC1CB"/>
</linearGradient>
<linearGradient id="paint7_linear_91_107" x1="213.25" y1="127.5" x2="213.25" y2="254" gradientUnits="userSpaceOnUse">
<stop stop-color="#6FC1CB"/>
<stop offset="1" stop-color="#4FA0A4"/>
</linearGradient>
<clipPath id="clip0_91_107">
<rect width="343" height="254" fill="white"/>
</clipPath>
</defs>
</svg>
